<svg xmlns="http://www.w3.org/2000/svg" width="60" height="60" viewBox="0 0 60 60" fill="none">
    <path d="M6.61845 39.9919C4.83069 39.9254 3.36805 39.4679 2.22438 38.6181C2.00611 38.4558 1.48601 37.9691 1.31152 37.7638C0.847742 37.2183 0.532438 36.6875 0.322132 36.0986C-0.32501 34.2856 0.00805085 31.9067 1.27478 29.2958C2.35937 27.0605 4.03294 24.8436 6.95274 21.7731C7.38284 21.3213 8.66365 20 8.67192 20C8.67498 20 8.60518 20.1131 8.51732 20.2508C7.75814 21.4402 7.10855 22.8411 6.75467 24.0539C6.18621 26 6.25477 27.6701 6.95549 28.9651C7.43885 29.8572 8.26753 30.63 9.19936 31.0572C10.8307 31.8047 13.2191 31.8666 16.1358 31.2381C16.3366 31.1946 26.2874 28.724 38.2488 25.7478C50.2102 22.7712 59.9985 20.3379 60 20.3399C60.0034 20.3424 32.2103 31.4657 17.7824 37.2364C15.4975 38.15 14.8865 38.3808 13.8123 38.7335C11.0664 39.6354 8.60671 40.0657 6.61845 39.9919Z" fill="#262D33"/>
</svg>