<svg width="40" height="40" viewBox="0 0 40 40" fill="none" xmlns="http://www.w3.org/2000/svg">
<path d="M4.4123 26.6614C3.22046 26.6171 2.24536 26.3121 1.48292 25.7456C1.33741 25.6374 0.990671 25.3129 0.874345 25.176C0.565161 24.8124 0.354959 24.4585 0.214755 24.0659C-0.216673 22.8573 0.00536723 21.2713 0.849856 19.5307C1.57292 18.0405 2.68863 16.5625 4.63516 14.5156C4.92189 14.2144 5.77577 13.3335 5.78128 13.3335C5.78332 13.3335 5.73679 13.4089 5.67822 13.5007C5.17209 14.2936 4.73903 15.2276 4.50312 16.0361C4.12414 17.3335 4.16985 18.4469 4.63699 19.3102C4.95924 19.905 5.51168 20.4201 6.13291 20.7049C7.22046 21.2033 8.8127 21.2445 10.7572 20.8256C10.8911 20.7966 17.5249 19.1495 25.4992 17.1653C33.4735 15.181 39.999 13.5587 40 13.5601C40.0022 13.5618 21.4735 20.9773 11.8549 24.8244C10.3317 25.4335 9.92433 25.5874 9.20821 25.8225C7.3776 26.4238 5.73781 26.7107 4.4123 26.6614Z" fill="white"/>
</svg>
