<svg xmlns="http://www.w3.org/2000/svg" width="239" height="50" viewBox="0 0 239 50" fill="none">
    <path d="M0.38051 0L11.7818 0.0900567C15.6738 0.120799 18.5055 1.05718 20.2767 2.89919C22.0483 4.69551 22.9193 7.46728 22.8896 11.2145L22.8743 13.1338C22.8548 15.6015 22.4267 17.6089 21.5902 19.1561C20.7995 20.7037 19.5772 21.8137 17.9234 22.4862L17.9223 22.6233C21.6668 23.9325 23.5177 27.2832 23.4749 32.6756L23.4423 36.7884C23.413 40.4899 22.406 43.3154 20.4216 45.2648C18.4832 47.1689 15.6367 48.1062 11.8821 48.0765L0 47.9826L0.38051 0ZM10.734 19.6188C12.245 19.6307 13.3699 19.2512 14.1087 18.4801C14.8933 17.7094 15.2928 16.4101 15.3073 14.5822L15.3285 11.9088C15.3423 10.1723 15.0317 8.9131 14.3968 8.13117C13.8077 7.34961 12.8493 6.95358 11.5214 6.94309L7.88123 6.91434L7.78067 19.5955L10.734 19.6188ZM11.9364 41.2218C13.2643 41.2323 14.2515 40.8974 14.8979 40.217C15.5448 39.4909 15.8751 38.2596 15.8889 36.523L15.922 32.3417C15.9394 30.1482 15.5622 28.6371 14.7903 27.8084C14.0646 26.9344 12.8317 26.4905 11.0918 26.4767L7.72631 26.4501L7.60944 41.1877L11.9364 41.2218Z" fill="white"/>
    <path d="M33.9867 0.265449L44.2204 0.346283L51.6697 48.3908L44.1146 48.3311L42.8165 38.7923L42.8154 38.9294L34.2301 38.8615L32.782 48.2416L25.7763 48.1862L33.9867 0.265449ZM41.9742 32.4104L38.7968 8.66666L38.6595 8.66557L35.1746 32.3567L41.9742 32.4104Z" fill="white"/>
    <path d="M55.7156 0.437081L66.9108 0.52551C70.8028 0.556252 73.6345 1.49263 75.4057 3.33465C77.1773 5.13096 78.0483 7.90273 78.0186 11.6499L77.9952 14.5975C77.9557 19.5785 76.2823 22.7186 72.975 24.0178L72.974 24.1549C74.8011 24.7178 76.0743 25.8475 76.7935 27.5441C77.5585 29.2411 77.9298 31.5062 77.9073 34.3394L77.8405 42.7707C77.8296 44.1416 77.8665 45.2616 77.9512 46.1305C78.0363 46.9538 78.2587 47.7782 78.6185 48.6036L70.926 48.5429C70.6574 47.7638 70.4801 47.0312 70.3939 46.345C70.3078 45.6589 70.2718 44.4247 70.2859 42.6424L70.3555 33.8685C70.3729 31.675 70.0187 30.1412 69.293 29.2672C68.6131 28.3935 67.4031 27.9498 65.6632 27.936L63.0532 27.9154L62.8902 48.4794L55.3351 48.4197L55.7156 0.437081ZM65.8549 21.0824C67.3659 21.0944 68.4908 20.7148 69.2296 19.9437C70.0141 19.173 70.4137 17.8737 70.4282 16.0458L70.4575 12.3443C70.4713 10.6078 70.1607 9.34855 69.5259 8.56663C68.9368 7.78506 67.9783 7.38904 66.6504 7.37855L63.2163 7.35142L63.1076 21.0607L65.8549 21.0824Z" fill="white"/>
    <path d="M93.6765 49.4081C90.0592 49.3795 87.2972 48.3294 85.3904 46.2578C83.5294 44.1866 82.6137 41.2774 82.6434 37.5302L82.8478 11.7566C82.8775 8.00943 83.8392 5.11504 85.7328 3.07347C87.6722 1.03226 90.4506 0.0259375 94.0679 0.0545097C97.6852 0.0830819 100.424 1.13298 102.285 3.20421C104.192 5.2758 105.131 8.1852 105.101 11.9324L105.061 17.0049L97.9177 16.9484L97.9618 11.3962C97.9853 8.42582 96.7379 6.93069 94.2196 6.9108C91.7012 6.89091 90.4303 8.36614 90.4067 11.3365L90.1942 38.1382C90.171 41.0629 91.4185 42.5352 93.9369 42.555C96.4553 42.5749 97.726 41.1226 97.7492 38.1979L97.8074 30.8634L104.95 30.9198L104.897 37.706C104.867 41.4532 103.882 44.3474 101.943 46.3886C100.049 48.4302 97.2938 49.4367 93.6765 49.4081Z" fill="white"/>
    <path d="M109.709 0.863566L130.314 1.02632L130.26 7.88098L117.21 7.77791L117.109 20.459L127.48 20.541L127.426 27.3956L117.055 27.3137L116.938 42.0512L129.988 42.1543L129.933 49.009L109.329 48.8462L109.709 0.863566Z" fill="white"/>
    <path d="M134.66 1.06065L142.215 1.12033L141.889 42.2483L154.321 42.3465L154.266 49.2012L134.28 49.0433L134.66 1.06065Z" fill="white"/>
    <path d="M168.536 49.9994C164.827 49.9701 161.997 48.8966 160.045 46.779C158.092 44.6613 157.131 41.6832 157.162 37.8446L157.362 12.6194C157.392 8.78081 158.4 5.81823 160.386 3.73169C162.372 1.64514 165.219 0.616516 168.928 0.645812C172.636 0.675107 175.467 1.74858 177.419 3.86623C179.371 5.98388 180.332 8.96201 180.302 12.8006L180.102 38.0258C180.071 41.8644 179.063 44.827 177.078 46.9135C175.092 49.0001 172.245 50.0287 168.536 49.9994ZM168.591 43.1447C171.2 43.1653 172.518 41.5991 172.543 38.4459L172.751 12.2611C172.776 9.10797 171.483 7.52109 168.873 7.50048C166.263 7.47986 164.946 9.04613 164.921 12.1993L164.713 38.3841C164.688 41.5372 165.981 43.1241 168.591 43.1447Z" fill="white"/>
    <path d="M185.501 1.46223L194.98 1.5371L202.101 30.3162L202.238 30.3173L202.466 1.59623L209.197 1.6494L208.816 49.632L201.055 49.5707L192.267 14.4718L192.13 14.4707L191.852 49.498L185.121 49.4449L185.501 1.46223Z" fill="white"/>
    <path d="M220.65 1.73987L230.884 1.8207L238.333 49.8652L230.778 49.8055L229.48 40.2667L229.479 40.4038L220.894 40.336L219.446 49.716L212.44 49.6607L220.65 1.73987ZM228.638 33.8848L225.46 10.1411L225.323 10.14L221.838 33.8311L228.638 33.8848Z" fill="white"/>
</svg>