<svg xmlns="http://www.w3.org/2000/svg" width="1107" height="252" viewBox="0 0 1107 252" fill="none">
    <path d="M0 3.5H38.5V213.5H101.85V248.5H0V3.5Z" fill="white"/>
    <path d="M120.312 3.5H158.812V248.5H120.312V3.5Z" fill="white"/>
    <path d="M177.496 3.5H216.346L241.546 193.55H242.246L267.447 3.5H302.796L265.696 248.5H214.596L177.496 3.5Z" fill="white"/>
    <path d="M321.289 3.5H426.289V38.5H359.789V103.25H412.639V138.25H359.789V213.5H426.289V248.5H321.289V3.5Z" fill="white"/>
    <path d="M448.438 3.5H505.488C525.321 3.5 539.788 8.16667 548.888 17.5C557.987 26.6 562.537 40.7167 562.537 59.85V74.9C562.537 100.333 554.138 116.433 537.338 123.2V123.9C546.671 126.7 553.204 132.417 556.938 141.05C560.904 149.683 562.888 161.233 562.888 175.7V218.75C562.888 225.75 563.121 231.467 563.588 235.9C564.054 240.1 565.221 244.3 567.088 248.5H527.888C526.487 244.533 525.554 240.8 525.088 237.3C524.621 233.8 524.388 227.5 524.388 218.4V173.6C524.388 162.4 522.521 154.583 518.787 150.15C515.287 145.717 509.104 143.5 500.238 143.5H486.938V248.5H448.438V3.5ZM500.938 108.5C508.638 108.5 514.354 106.517 518.088 102.55C522.054 98.5833 524.037 91.9333 524.037 82.6V63.7C524.037 54.8333 522.404 48.4167 519.138 44.45C516.104 40.4833 511.204 38.5 504.438 38.5H486.938V108.5H500.938Z" fill="white"/>
    <path d="M589.6 3.5H646.3C665.433 3.5 679.783 8.63333 689.35 18.9C698.916 29.1667 703.7 44.2167 703.7 64.05V88.2C703.7 108.033 698.916 123.083 689.35 133.35C679.783 143.617 665.433 148.75 646.3 148.75H628.1V248.5H589.6V3.5ZM646.3 113.75C652.6 113.75 657.266 112 660.3 108.5C663.566 105 665.2 99.05 665.2 90.65V61.6C665.2 53.2 663.566 47.25 660.3 43.75C657.266 40.25 652.6 38.5 646.3 38.5H628.1V113.75H646.3Z" fill="white"/>
    <path d="M780.259 252C761.359 252 746.893 246.633 736.859 235.9C726.826 225.167 721.809 210 721.809 190.4V61.6C721.809 42 726.826 26.8333 736.859 16.1C746.893 5.36667 761.359 0 780.259 0C799.159 0 813.626 5.36667 823.659 16.1C833.693 26.8333 838.709 42 838.709 61.6V190.4C838.709 210 833.693 225.167 823.659 235.9C813.626 246.633 799.159 252 780.259 252ZM780.259 217C793.559 217 800.209 208.95 800.209 192.85V59.15C800.209 43.05 793.559 35 780.259 35C766.959 35 760.309 43.05 760.309 59.15V192.85C760.309 208.95 766.959 217 780.259 217Z" fill="white"/>
    <path d="M920.396 252C901.496 252 887.029 246.633 876.996 235.9C866.963 225.167 861.946 210 861.946 190.4V61.6C861.946 42 866.963 26.8333 876.996 16.1C887.029 5.36667 901.496 0 920.396 0C939.296 0 953.763 5.36667 963.796 16.1C973.829 26.8333 978.846 42 978.846 61.6V190.4C978.846 210 973.829 225.167 963.796 235.9C953.763 246.633 939.296 252 920.396 252ZM920.396 217C933.696 217 940.346 208.95 940.346 192.85V59.15C940.346 43.05 933.696 35 920.396 35C907.096 35 900.446 43.05 900.446 59.15V192.85C900.446 208.95 907.096 217 920.396 217Z" fill="white"/>
    <path d="M1004.88 3.5H1043.38V213.5H1106.73V248.5H1004.88V3.5Z" fill="white"/>
</svg>