<svg xmlns="http://www.w3.org/2000/svg" width="121" height="24" viewBox="0 0 121 24" fill="none">
    <path d="M0 23.6196H1.58918C6.54742 23.6196 9.694 20.576 9.694 16.0106V0H4.76754V16.2325C4.76754 18.0079 3.4962 19.181 1.58918 19.181H0V23.6196Z" fill="#262D33"/>
    <path d="M29.6223 14.4571C29.6223 9.66975 25.8718 5.92867 21.009 5.92867C16.0507 5.92867 12.2367 9.76486 12.2367 14.9326C12.2367 19.9419 15.8282 24 21.3268 24C24.8866 24 27.7471 22.3197 28.7959 19.7834L24.9819 17.9762C24.3144 19.1493 23.0749 19.8785 21.3904 19.8785C19.0384 19.8785 17.481 18.4835 17.1949 16.2959H29.3998C29.5587 15.8203 29.6223 15.1546 29.6223 14.4571ZM17.2903 12.8085C17.767 10.8111 19.1337 9.73316 21.009 9.73316C22.9795 9.73316 24.378 10.9696 24.5687 12.8085H17.2903Z" fill="#262D33"/>
    <path d="M40.6877 6.11889C38.5582 6.11889 36.8737 6.75297 35.9837 8.90885V6.30912H31.534V23.6196H36.3016V14.2985C36.3016 11.7305 37.8908 10.2404 40.211 10.2404H42.4994V6.11889H40.6877Z" fill="#262D33"/>
    <path d="M51.4393 24C55.6029 24 58.4952 21.8124 58.4952 18.6103C58.4952 16.1374 56.8425 14.362 53.7595 13.5377L50.5493 12.6816C49.9772 12.5231 48.7694 12.2061 48.7694 11.1598C48.7694 10.2721 49.5958 9.73316 50.9943 9.73316C52.8695 9.73316 54.3633 10.6209 54.9355 12.111L58.4952 10.4624C57.3828 7.64069 54.5541 5.92867 50.9943 5.92867C46.926 5.92867 44.1608 8.11625 44.1608 11.3184C44.1608 13.6962 45.6864 15.535 48.833 16.3593L51.8842 17.1519C52.4881 17.3104 53.8866 17.6592 53.8866 18.8005C53.8866 19.7517 52.9331 20.354 51.4393 20.354C49.4687 20.354 47.9113 19.3078 46.9896 17.3738L43.4616 19.0225C44.5422 22.1612 47.657 24 51.4393 24Z" fill="#262D33"/>
    <path d="M77.2696 6.30912H71.7075L65.4779 12.8719V0H60.7104V23.6196H65.4779V19.2761L67.8935 16.6764L72.0889 23.6196H77.2696L70.9765 13.284L77.2696 6.30912Z" fill="#262D33"/>
    <path d="M78.5266 4.75561H83.2941V0H78.5266V4.75561ZM78.5266 23.6196H83.2941V6.30912H78.5266V23.6196Z" fill="#262D33"/>
    <path d="M94.7998 23.8098C95.5308 23.8098 96.389 23.7464 97.0246 23.6513V19.9102C96.5797 19.9736 96.1983 20.0053 95.9122 20.0053C93.9098 20.0053 92.9563 19.1493 92.9563 17.3738V10.4306H97.0246V6.30912H92.9563V1.10964H88.1888V3.64597C88.1888 5.4214 87.2035 6.30912 85.4236 6.30912H85.2011V10.4306H88.1888V17.3738C88.1888 21.432 90.6043 23.8098 94.7998 23.8098Z" fill="#262D33"/>
    <path d="M106.285 24C110.448 24 113.341 21.8124 113.341 18.6103C113.341 16.1374 111.688 14.362 108.605 13.5377L105.395 12.6816C104.823 12.5231 103.615 12.2061 103.615 11.1598C103.615 10.2721 104.441 9.73316 105.84 9.73316C107.715 9.73316 109.209 10.6209 109.781 12.111L113.341 10.4624C112.228 7.64069 109.399 5.92867 105.84 5.92867C101.771 5.92867 99.0061 8.11625 99.0061 11.3184C99.0061 13.6962 100.532 15.535 103.678 16.3593L106.73 17.1519C107.333 17.3104 108.732 17.6592 108.732 18.8005C108.732 19.7517 107.778 20.354 106.285 20.354C104.314 20.354 102.757 19.3078 101.835 17.3738L98.3069 19.0225C99.3876 22.1612 102.502 24 106.285 24Z" fill="#262D33"/>
    <path d="M116.032 23.6196H120.8V18.8639H116.032V23.6196Z" fill="#262D33"/>
</svg>